<?xml version="1.0" encoding="utf-8"?>
<!-- Generator: Adobe Illustrator 16.2.1, SVG Export Plug-In . SVG Version: 6.00 Build 0)  -->
<!DOCTYPE svg PUBLIC "-//W3C//DTD SVG 1.1//EN" "http://www.w3.org/Graphics/SVG/1.1/DTD/svg11.dtd">
<svg version="1.1" id="Icons" xmlns="http://www.w3.org/2000/svg" xmlns:xlink="http://www.w3.org/1999/xlink" x="0px" y="0px"
	 width="100px" height="100px" viewBox="0 0 100 100" enable-background="new 0 0 100 100" xml:space="preserve">
<path fill="#FFFFFF" d="M99.646,20.211c-3.652,1.617-7.572,2.717-11.697,3.208c4.209-2.521,7.434-6.517,8.959-11.262
	c-3.945,2.333-8.303,4.027-12.944,4.946c-3.71-3.966-9.003-6.436-14.863-6.436c-11.252,0-20.372,9.124-20.372,20.366
	c0,1.594,0.182,3.151,0.527,4.636c-16.928-0.848-31.937-8.956-41.981-21.278c-1.758,3.002-2.757,6.501-2.757,10.237
	c0,7.065,3.599,13.307,9.059,16.955c-3.339-0.115-6.478-1.03-9.226-2.557v0.254c0,9.866,7.023,18.094,16.337,19.972
	c-1.706,0.461-3.506,0.717-5.366,0.717c-1.315,0-2.586-0.135-3.835-0.378C14.08,67.688,21.6,73.576,30.51,73.741
	c-6.968,5.459-15.754,8.708-25.295,8.708c-1.645,0-3.267-0.098-4.86-0.28c9.017,5.789,19.718,9.163,31.226,9.163
	c37.467,0,57.953-31.036,57.953-57.955l-0.064-2.642C93.461,27.879,96.92,24.292,99.646,20.211z"/>
</svg>
