<?xml version="1.0" encoding="utf-8"?>
<!-- Generator: Adobe Illustrator 16.2.1, SVG Export Plug-In . SVG Version: 6.00 Build 0)  -->
<!DOCTYPE svg PUBLIC "-//W3C//DTD SVG 1.1//EN" "http://www.w3.org/Graphics/SVG/1.1/DTD/svg11.dtd">
<svg version="1.1" id="Icons" xmlns="http://www.w3.org/2000/svg" xmlns:xlink="http://www.w3.org/1999/xlink" x="0px" y="0px"
	 width="100px" height="100px" viewBox="0 0 100 100" enable-background="new 0 0 100 100" xml:space="preserve">
<path fill="#FFFFFF" d="M94.19,0.229H5.638c-3.033,0-5.494,2.459-5.494,5.495v88.552c0,3.038,2.461,5.497,5.494,5.497h47.672V61.225
	h-12.97V46.198h12.97v-11.08c0-12.857,7.85-19.86,19.323-19.86c5.499,0,10.213,0.412,11.591,0.591v13.437l-7.956,0.004
	c-6.237,0-7.442,2.964-7.442,7.312v9.592h14.882l-1.944,15.023H68.826V99.77H94.19c3.037,0,5.501-2.467,5.501-5.494V5.719
	C99.688,2.688,97.228,0.229,94.19,0.229z"/>
</svg>
