<?xml version="1.0" encoding="utf-8"?>
<!-- Generator: Adobe Illustrator 16.2.1, SVG Export Plug-In . SVG Version: 6.00 Build 0)  -->
<!DOCTYPE svg PUBLIC "-//W3C//DTD SVG 1.1//EN" "http://www.w3.org/Graphics/SVG/1.1/DTD/svg11.dtd">
<svg version="1.1" id="Layer_2" xmlns="http://www.w3.org/2000/svg" xmlns:xlink="http://www.w3.org/1999/xlink" x="0px" y="0px"
	 width="126px" height="126px" viewBox="0 0 126 126" enable-background="new 0 0 126 126" xml:space="preserve">
<g>
	<path fill="#11C0B5" d="M104.001,69.525c-1.004-1.031-2.188-1.895-3.56-2.6c-6.864-3.519-13.971-6.44-21.157-9.197
		c-0.534-0.202-1.174-0.613-1.396-1.082c-0.587-1.297-0.992-2.674-1.416-4.029c-0.263-0.872-0.492-1.688-1.443-2.11
		c-0.259-0.115-0.494-0.615-0.494-0.938c0.058-3.157-0.676-6.467,1.667-9.221c0.071-0.085,0.101-0.206,0.149-0.307
		c1.268-2.761,1.48-5.924,3.251-8.496c0.044-0.057,0.055-0.142,0.061-0.216c0.209-1.968,0.417-3.922,0.586-5.884
		c0.017-0.239-0.195-0.674-0.406-0.748c-0.968-0.341-0.919-1.126-0.91-1.905c0-3.833,0-4.39-0.009-8.223
		c0-2.228-0.654-4.207-2.334-5.724c-1.923-1.723-3.893-3.392-5.865-5.054c-0.947-0.807-1.035-1.426-0.143-2.31
		c0.397-0.391,0.896-0.674,1.357-1.001c-0.102-0.151-0.199-0.301-0.303-0.452c-0.594,0-1.194-0.077-1.77,0.011
		c-2.188,0.351-4.377,0.661-6.512,1.164c-4.089,0.964-8.057,2.242-11.372,4.979c-2.265,1.869-4.075,4.046-4.307,7.128
		c-0.111,1.615-0.098,3.241-0.111,4.852c-0.018,2.636,0.023,1.995-0.033,4.622c-0.016,0.429-0.25,1.132-0.552,1.228
		c-1.063,0.347-1.094,1.029-0.948,1.916c0.103,0.609,0.026,1.246,0.157,1.844c0.369,1.644,0.758,3.293,1.234,4.912
		c0.352,1.206,1.036,2.346,1.232,3.573c0.373,2.451,1.287,4.582,2.946,6.437c0.268,0.306,0.475,0.819,0.444,1.228
		c-0.133,1.88-0.325,3.768-0.581,5.643c-0.054,0.365-0.434,0.912-0.748,0.982c-1.255,0.256-1.447,1.22-1.748,2.202
		c-0.392,1.288-0.813,2.572-1.311,3.82c-0.157,0.39-0.548,0.792-0.931,0.968c-2.226,0.964-4.496,1.859-6.743,2.801
		c-2.388,1.005-4.8,1.965-7.132,3.071c-2.403,1.154-4.74,2.445-7.095,3.707c-1.385,0.744-2.684,1.566-3.761,2.584l-3.278,13.959
		c11.782,0,19.412,6.285,29.278,10.15c3.376,4.633,8.83,7.658,15.002,7.658c6.589,0,12.362-3.441,15.655-8.617
		c10.476-3.857,22.021-9.191,28.623-9.191L104.001,69.525z M63.162,99.434c-7.84,0-14.219-6.379-14.219-14.219
		c0-7.842,6.378-14.219,14.219-14.219s14.219,6.379,14.219,14.219C77.381,93.057,71.002,99.434,63.162,99.434z"/>
	<path fill="#11C0B5" d="M64.781,76.895l-0.326,11.779h-2.586l-0.326-11.779H64.781z M63.162,93.533
		c-1.042,0-1.831-0.812-1.831-1.893c0-1.076,0.789-1.891,1.831-1.891c1.061,0,1.831,0.795,1.831,1.891
		C64.992,92.738,64.223,93.533,63.162,93.533z"/>
</g>
</svg>
