<?xml version="1.0" encoding="utf-8"?>
<!-- Generator: Adobe Illustrator 16.2.1, SVG Export Plug-In . SVG Version: 6.00 Build 0)  -->
<!DOCTYPE svg PUBLIC "-//W3C//DTD SVG 1.1//EN" "http://www.w3.org/Graphics/SVG/1.1/DTD/svg11.dtd">
<svg version="1.1" id="Capa_1" xmlns="http://www.w3.org/2000/svg" xmlns:xlink="http://www.w3.org/1999/xlink" x="0px" y="0px"
	 width="58.342px" height="52px" viewBox="0 0 58.342 52" enable-background="new 0 0 58.342 52" xml:space="preserve">
<g>
	<path fill="#11C0B5" d="M47.134,29.331c-0.636-1.24-2.221-2.213-3.613-2.213h-1.077c-1.04,0-2.512-0.646-3.222-1.409l-8.857-9.586
		c0.2-0.152,0.337-0.383,0.337-0.657L30.696,4.594l3.356-3.358c0.289-0.302,0.272-0.782-0.031-1.07
		c-0.3-0.293-0.777-0.278-1.065,0.023l-3.168,3.188h-2.162l-3.073-3.061C24.266,0.015,23.788,0,23.485,0.293
		c-0.303,0.287-0.319,0.767-0.03,1.07l3.235,3.229v10.874c0,0.243,0.106,0.458,0.27,0.609c-0.053,0.079-0.113,0.15-0.158,0.238
		L18.36,32.763c-0.283,0.546-0.842,0.886-1.464,0.886c-0.253,0-0.498-0.056-0.727-0.17l-2.968-1.483
		c-0.375-0.188-0.8-0.291-1.227-0.291c-1.022,0-1.961,0.551-2.447,1.438l-3.47,6.324c-0.231,0.417-0.247,0.854-0.042,1.199
		c0.203,0.343,0.595,0.54,1.072,0.54h44.147c0.477,0,0.869-0.194,1.08-0.538c0.21-0.343,0.206-0.782-0.012-1.201L47.134,29.331z
		 M43.521,28.192c0.99,0,2.203,0.748,2.653,1.627l2.354,4.611l-0.704-0.222c-0.568-0.178-1.026,0.096-1.026,0.609
		s-0.283,0.543-0.632,0.059l-0.086-0.119c-0.347-0.482-0.812-0.876-1.033-0.876c-0.223,0-0.556-0.394-0.74-0.882
		c-0.187-0.487-0.546-0.704-0.807-0.479c-0.261,0.222-0.472-0.077-0.472-0.676v-0.402c0-0.593-0.421-1.078-0.94-1.078
		s-0.842-0.47-0.713-1.05c0,0,0.084-0.39,0.189-0.868c0.027-0.121,0.031-0.242,0.019-0.352c0.296,0.059,0.59,0.098,0.863,0.098
		H43.521L43.521,28.192z M29.031,11.394l0.003,3.792c-0.152-0.042-0.306-0.067-0.463-0.067c-0.076,0-0.144,0.023-0.216,0.033v-3.759
		h0.674L29.031,11.394L29.031,11.394z M27.76,16.808c0.359-0.699,1.041-0.789,1.571-0.216l9.101,9.849
		c0.466,0.504,1.16,0.951,1.905,1.27c-0.112,0.127-0.211,0.272-0.277,0.464l-2.327,6.562c-0.198,0.562-0.687,0.663-1.095,0.228
		l-0.276-0.297c-0.406-0.435-0.976-1.203-1.273-1.718l-0.407-0.708c-0.296-0.518-0.779-0.723-1.076-0.461
		c-0.296,0.26-0.688,0.013-0.873-0.551l-0.672-2.044c-0.188-0.567-0.643-0.648-1.017-0.19l-1.199,1.479
		c-0.376,0.462-0.678,0.354-0.678-0.24v-2.287c0-0.597-0.358-0.755-0.8-0.357l-1.091,0.981c-0.444,0.399-0.728,0.244-0.635-0.345
		l0.612-3.927c0.091-0.588-0.201-0.75-0.653-0.364l-0.248,0.216c-0.452,0.387-0.733,0.226-0.626-0.358l0.846-4.66L27.76,16.808z
		 M12.722,32.96l2.969,1.482c0.378,0.189,0.785,0.286,1.208,0.286c0.214,0,0.42-0.029,0.621-0.075
		c-0.042,0.112-0.067,0.229-0.067,0.345v0.891c0,0.593-0.479,1.13-1.068,1.2l-0.151,0.018c-0.589,0.072-1.339,0.43-1.675,0.8
		c-0.333,0.373-1.031,0.447-1.555,0.165l-0.119-0.061c-0.525-0.28-1.433-0.507-2.027-0.507c-0.594,0-0.956-0.466-0.805-1.041
		l0.781-2.989c0.027-0.102,0.039-0.192,0.045-0.278c0.303-0.254,0.684-0.409,1.099-0.409C12.239,32.783,12.491,32.844,12.722,32.96z
		"/>
	<path fill="#11C0B5" d="M28.685,3.047c0.82,0,1.482-0.667,1.482-1.485c0-0.815-0.663-1.48-1.482-1.48
		c-0.815,0-1.477,0.665-1.477,1.48C27.206,2.381,27.87,3.047,28.685,3.047z"/>
</g>
</svg>
