<?xml version="1.0" encoding="utf-8"?>
<!-- Generator: Adobe Illustrator 16.2.1, SVG Export Plug-In . SVG Version: 6.00 Build 0)  -->
<!DOCTYPE svg PUBLIC "-//W3C//DTD SVG 1.1//EN" "http://www.w3.org/Graphics/SVG/1.1/DTD/svg11.dtd">
<svg version="1.1" id="Icons" xmlns="http://www.w3.org/2000/svg" xmlns:xlink="http://www.w3.org/1999/xlink" x="0px" y="0px"
	 width="100px" height="100px" viewBox="0 0 100 100" enable-background="new 0 0 100 100" xml:space="preserve">
<path id="LinkedIn__x28_alt_x29_" fill="#ADC1D3" d="M92.582,0H7.386C3.307,0,0,3.206,0,7.162V92.8c0,3.956,3.308,7.165,7.386,7.165
	h85.196c4.079,0,7.383-3.21,7.383-7.165V7.162C99.965,3.207,96.661,0,92.582,0z M30.306,83.677H15.203V38.544h15.104V83.677z
	 M22.755,32.378h-0.101c-5.065,0-8.349-3.464-8.349-7.801c0-4.424,3.38-7.793,8.545-7.793c5.166,0,8.343,3.369,8.444,7.793
	C31.295,28.916,28.018,32.378,22.755,32.378z M84.752,83.677H69.651V59.53c0-6.069-2.187-10.208-7.646-10.208
	c-4.179,0-6.658,2.792-7.746,5.489c-0.404,0.963-0.503,2.31-0.503,3.656v25.209H38.659c0,0,0.197-40.9,0-45.133h15.098v6.398
	c2.005-3.074,5.586-7.46,13.604-7.46c9.938,0,17.391,6.447,17.391,20.316V83.677z M53.659,45.085
	c0.025-0.042,0.063-0.093,0.098-0.143v0.143H53.659z"/>
</svg>
