<?xml version="1.0" encoding="utf-8"?>
<!-- Generator: Adobe Illustrator 16.2.1, SVG Export Plug-In . SVG Version: 6.00 Build 0)  -->
<!DOCTYPE svg PUBLIC "-//W3C//DTD SVG 1.1//EN" "http://www.w3.org/Graphics/SVG/1.1/DTD/svg11.dtd">
<svg version="1.1" id="Layer_1" xmlns="http://www.w3.org/2000/svg" xmlns:xlink="http://www.w3.org/1999/xlink" x="0px" y="0px"
	 width="135px" height="52px" viewBox="0 0 135 52" enable-background="new 0 0 135 52" xml:space="preserve">
<g>
	<g>
		<path fill="#FFFFFF" d="M50.618,13.408l1.964-1.256C47.86,5.425,41.262,0.951,34.585-0.001l-0.507,2.267
			C40.157,3.061,46.228,7.175,50.618,13.408z M46.693,15.921l1.962-1.256c-4.06-5.746-9.604-9.503-15.083-10.135l-0.507,2.268
			C37.942,7.256,42.963,10.658,46.693,15.921z M42.763,18.437l1.968-1.26c-3.405-4.786-7.907-7.82-12.178-8.086l-0.511,2.291
			C35.638,11.429,39.684,14.157,42.763,18.437z M48.996,36.029l-2.274-0.542c-0.65,1.815-1.783,3.19-3.339,4.001
			c-0.94,0.49-1.982,0.739-3.098,0.739c-0.3,0-0.604-0.022-0.909-0.06l1.385,2.349c1.319-0.064,2.567-0.382,3.71-0.978
			C46.642,40.409,48.172,38.503,48.996,36.029z M47.737,47.688c-1.025,0.535-2.094,0.945-3.196,1.243L45.76,51
			c1.053-0.323,2.076-0.744,3.066-1.26c4.676-2.436,7.859-6.432,9.317-11.534l-2.282-0.544
			C54.557,42.111,51.784,45.582,47.737,47.688z M53.581,37.12l-2.283-0.543c-0.987,3.136-2.944,5.558-5.738,7.012
			c-1.1,0.573-2.277,0.938-3.505,1.124l1.258,2.135c1.158-0.256,2.275-0.656,3.336-1.209C50.068,43.858,52.433,40.913,53.581,37.12z
			 M13.909,19.138c0-3.977-2.706-6.657-6.576-6.657h-7.564V32.94h3.812V25.88h3.752C11.203,25.88,13.909,23.114,13.909,19.138z
			 M6.635,22.653H3.581V15.68h3.112c2.095,0,3.316,1.354,3.316,3.458C10.009,21.271,8.788,22.653,6.635,22.653z M125.32,18.101
			c0,0-0.35-0.058-0.67-0.058c-2.27,0-4.043,1.671-4.713,3.774h-0.059c0,0,0.059-0.375,0.059-0.922v-2.641h-3.551V32.94h3.666
			v-5.821c0-0.864,0.117-1.671,0.322-2.392c0.668-2.189,2.473-3.083,4.043-3.083c0.523,0,0.902,0.058,0.902,0.058V18.101z
			 M65.025,17.898c-2.356,0-4.276,1.44-5.062,3.024h-0.058c-0.641-1.987-2.096-3.024-4.336-3.024c-2.328,0-4.102,1.613-4.801,3.054
			h-0.059c0,0,0.029-0.316,0.029-0.633v-2.074c0,0-0.64,0-1.949,0h-1.6V32.94h3.666v-6.455c0-0.663,0.087-1.268,0.233-1.844
			c0.465-1.873,1.717-3.4,3.579-3.4c1.775,0,2.007,1.354,2.007,2.939v8.76h3.695v-6.455c0-0.691,0.059-1.297,0.232-1.873
			c0.408-1.844,1.717-3.371,3.551-3.371c1.715,0,2.035,1.268,2.035,2.939v8.76c0,0,0.582,0,1.978,0h1.717v-9.452
			C69.883,19.627,68.107,17.898,65.025,17.898z M80.02,17.898c-4.51,0-8.117,3.198-8.117,7.694c0,4.523,3.607,7.693,8.117,7.693
			c4.537,0,8.146-3.17,8.146-7.693C88.166,21.097,84.557,17.898,80.02,17.898z M80.02,30.174c-2.387,0-4.395-1.845-4.395-4.581
			c0-2.709,2.008-4.582,4.395-4.582c2.414,0,4.422,1.873,4.422,4.582C84.441,28.329,82.434,30.174,80.02,30.174z M95.266,27.091
			v-5.938h3.373v-2.908h-3.373v-4.007h-3.609v4.007h-2.008v2.908h1.922v6.398c0,4.927,4.1,5.532,6.166,5.532
			c0.67,0,1.135-0.086,1.135-0.086v-3.199c0,0-0.26,0.058-0.668,0.058C97.184,29.856,95.266,29.512,95.266,27.091z M107.475,17.898
			c-4.451,0-7.535,3.169-7.535,7.694c0,4.178,3.055,7.693,7.973,7.693c3.693,0,5.965-2.219,5.965-2.219l-1.543-2.536
			c0,0-1.775,1.643-4.16,1.643c-2.24,0-4.162-1.354-4.451-3.948h10.24c0,0,0.088-0.922,0.088-1.354
			C114.051,20.981,111.723,17.898,107.475,17.898z M103.838,23.69c0.408-1.845,1.746-2.969,3.637-2.969
			c1.514,0,2.734,1.211,2.793,2.969H103.838z M19.64,28.58v-1.461c0-0.864,0.116-1.671,0.32-2.392
			c0.669-2.189,2.474-3.083,4.044-3.083c0.523,0,0.902,0.058,0.902,0.058v-3.602c0,0-0.35-0.058-0.67-0.058
			c-2.269,0-4.043,1.671-4.713,3.774h-0.057c0,0,0.057-0.375,0.057-0.922v-2.641h-3.549v13.663
			C15.975,31.918,17.888,30.646,19.64,28.58z M28.76,29.504c-1.334-2.509-2.222-4.79-2.451-7.2c-2.775,4.498-5.996,7.719-9.748,10.5
			l-3.784,2.744c0,0-1.758,1.629-0.211,4.352c1.406,2.473,3.211,2.431,3.517,2.409c0.596-0.002,1.051-0.449,1.348-0.358
			c1.813,0.556,4.423,3.938,4.742,4.886c0.352,1.043,1.116,0.649,1.91,0.399c0.794-0.25,1.862-0.839,1.264-1.713
			c-0.49-0.716-0.534-0.598-1.03-1.191c-0.831-0.988-3.349-3.818-2.417-4.968c0.222-0.274,0.47-0.49,1.014-0.861
			c1.732-1.183,4.789-2.945,11.212-2.731C32.223,34.253,30.187,32.191,28.76,29.504z M41.994,36.873
			c3.371-1.756,3.468-8.135,0.22-14.25c-3.247-6.112-8.611-9.648-11.979-7.891c-3.369,1.753-3.467,8.134-0.218,14.248
			C33.265,35.093,38.627,38.627,41.994,36.873z M31.741,16.958c2.682-1.398,6.744,1.539,9.331,6.408
			c2.586,4.872,2.718,9.831,0.036,11.228c-1.665,0.868-3.977,0.147-6.05-1.752c-1.516-1.387-2.094-2.229-2.115-2.247
			c0.068,0.022,2.5,2.809,3.865,2.111c1.676-0.856,1.718-4.027,0.108-7.055c-1.608-3.028-4.264-4.779-5.93-3.91
			c-0.577,0.299-0.958,0.879-1.144,1.627C29.341,20.38,29.979,17.876,31.741,16.958z M122.688,32.962h1.379v-1.411h-1.379V32.962z
			 M125.137,26.549h1.381v-1.411h-1.381V26.549z M125.121,27.297v5.665c0,0,0.225,0,0.752,0h0.66v-5.665c0,0-0.223,0-0.75,0H125.121
			z M130.627,27.162c-1.738,0-3.129,1.233-3.129,2.966c0,1.744,1.391,2.966,3.129,2.966c1.75,0,3.141-1.222,3.141-2.966
			C133.768,28.396,132.377,27.162,130.627,27.162z M130.627,31.895c-0.918,0-1.693-0.711-1.693-1.767
			c0-1.044,0.775-1.766,1.693-1.766c0.932,0,1.705,0.722,1.705,1.766C132.332,31.184,131.559,31.895,130.627,31.895z"/>
	</g>
</g>
</svg>
