<?xml version="1.0" encoding="utf-8"?>
<!-- Generator: Adobe Illustrator 16.2.1, SVG Export Plug-In . SVG Version: 6.00 Build 0)  -->
<!DOCTYPE svg PUBLIC "-//W3C//DTD SVG 1.1//EN" "http://www.w3.org/Graphics/SVG/1.1/DTD/svg11.dtd">
<svg version="1.1" id="Layer_1" xmlns="http://www.w3.org/2000/svg" xmlns:xlink="http://www.w3.org/1999/xlink" x="0px" y="0px"
	 width="98px" height="38px" viewBox="0 0 98 38" enable-background="new 0 0 98 38" xml:space="preserve">
<g>
	<g>
		<path fill="#ACB3BA" d="M37.108,10.107l1.433-0.917c-3.446-4.909-8.261-8.174-13.133-8.869l-0.37,1.654
			C29.474,2.557,33.905,5.559,37.108,10.107z M34.244,11.941l1.432-0.917c-2.962-4.193-7.009-6.936-11.007-7.396l-0.37,1.655
			C27.858,5.618,31.522,8.101,34.244,11.941z M31.376,13.777l1.437-0.919c-2.485-3.492-5.77-5.707-8.887-5.901l-0.373,1.672
			C26.176,8.663,29.129,10.654,31.376,13.777z M35.924,26.616l-1.659-0.396c-0.475,1.325-1.301,2.329-2.437,2.921
			c-0.687,0.357-1.447,0.539-2.261,0.539c-0.218,0-0.44-0.016-0.663-0.044l1.011,1.714c0.962-0.047,1.873-0.278,2.707-0.713
			C34.207,29.812,35.323,28.422,35.924,26.616z M35.006,35.124c-0.748,0.391-1.528,0.69-2.332,0.907l0.89,1.51
			c0.768-0.235,1.515-0.544,2.238-0.92c3.412-1.776,5.735-4.693,6.799-8.417l-1.666-0.396
			C39.982,31.055,37.959,33.587,35.006,35.124z M39.271,27.412l-1.666-0.396c-0.721,2.289-2.148,4.056-4.188,5.116
			c-0.803,0.42-1.662,0.686-2.558,0.82l0.918,1.558c0.845-0.187,1.66-0.479,2.434-0.882C36.707,32.329,38.433,30.18,39.271,27.412z
			 M10.319,14.289c0-2.903-1.975-4.858-4.798-4.858H0v14.931h2.782v-5.153h2.739C8.344,19.208,10.319,17.191,10.319,14.289z
			 M5.011,16.854H2.782v-5.089h2.271c1.529,0,2.42,0.989,2.42,2.524C7.474,15.846,6.582,16.854,5.011,16.854z M91.623,13.532
			c0,0-0.254-0.042-0.489-0.042c-1.655,0-2.949,1.22-3.438,2.755h-0.043c0,0,0.043-0.274,0.043-0.673v-1.927h-2.592v10.716h2.676
			v-4.247c0-0.632,0.085-1.221,0.236-1.746c0.486-1.598,1.804-2.25,2.95-2.25c0.382,0,0.657,0.042,0.657,0.042V13.532z
			 M47.622,13.384c-1.719,0-3.12,1.051-3.694,2.207h-0.042c-0.468-1.45-1.529-2.207-3.164-2.207c-1.699,0-2.994,1.178-3.504,2.229
			h-0.042c0,0,0.021-0.231,0.021-0.462v-1.514c0,0-0.467,0-1.422,0h-1.167v10.724h2.675v-4.71c0-0.484,0.064-0.925,0.17-1.346
			c0.339-1.366,1.253-2.481,2.612-2.481c1.295,0,1.465,0.989,1.465,2.145v6.393h2.696v-4.71c0-0.504,0.042-0.947,0.169-1.367
			c0.298-1.345,1.253-2.46,2.591-2.46c1.251,0,1.485,0.925,1.485,2.145v6.393c0,0,0.425,0,1.444,0h1.252v-6.897
			C51.167,14.646,49.871,13.384,47.622,13.384z M58.564,13.384c-3.291,0-5.924,2.334-5.924,5.616c0,3.3,2.633,5.614,5.924,5.614
			c3.312,0,5.945-2.314,5.945-5.614C64.51,15.719,61.876,13.384,58.564,13.384z M58.564,22.343c-1.741,0-3.207-1.346-3.207-3.343
			c0-1.978,1.466-3.344,3.207-3.344c1.762,0,3.228,1.367,3.228,3.344C61.792,20.997,60.326,22.343,58.564,22.343z M69.69,20.093
			V15.76h2.463v-2.123H69.69v-2.924h-2.634v2.924h-1.465v2.123h1.402v4.67c0,3.595,2.992,4.036,4.5,4.036
			c0.489,0,0.828-0.062,0.828-0.062v-2.335c0,0-0.19,0.042-0.488,0.042C71.09,22.11,69.69,21.86,69.69,20.093z M78.601,13.384
			c-3.249,0-5.5,2.313-5.5,5.616c0,3.049,2.23,5.614,5.818,5.614c2.696,0,4.354-1.619,4.354-1.619l-1.126-1.852
			c0,0-1.295,1.199-3.036,1.199c-1.635,0-3.036-0.989-3.249-2.882h7.474c0,0,0.064-0.672,0.064-0.988
			C83.399,15.634,81.701,13.384,78.601,13.384z M75.946,17.611c0.298-1.347,1.274-2.167,2.654-2.167
			c1.105,0,1.995,0.884,2.038,2.167H75.946z M14.502,21.18v-1.065c0-0.632,0.084-1.221,0.234-1.746
			c0.488-1.598,1.805-2.25,2.951-2.25c0.382,0,0.659,0.042,0.659,0.042v-2.628c0,0-0.255-0.042-0.489-0.042
			c-1.656,0-2.951,1.22-3.44,2.755h-0.042c0,0,0.042-0.274,0.042-0.673v-1.927h-2.589v9.97
			C11.827,23.615,13.223,22.687,14.502,21.18z M21.157,21.854c-0.974-1.831-1.621-3.496-1.789-5.255
			c-2.025,3.283-4.376,5.633-7.114,7.663l-2.762,2.003c0,0-1.283,1.188-0.153,3.175c1.026,1.806,2.343,1.774,2.566,1.759
			c0.435-0.001,0.767-0.328,0.984-0.262c1.324,0.405,3.228,2.874,3.46,3.565c0.257,0.762,0.814,0.475,1.394,0.291
			c0.58-0.183,1.359-0.611,0.922-1.25c-0.357-0.521-0.39-0.435-0.752-0.868c-0.606-0.723-2.444-2.787-1.764-3.626
			c0.163-0.2,0.343-0.358,0.741-0.629c1.264-0.863,3.495-2.148,8.182-1.992C23.684,25.319,22.198,23.814,21.157,21.854z
			 M30.815,27.231c2.459-1.28,2.53-5.937,0.161-10.399c-2.37-4.46-6.284-7.041-8.741-5.758c-2.459,1.279-2.531,5.937-0.16,10.398
			C24.444,25.932,28.358,28.511,30.815,27.231z M23.333,12.698c1.957-1.021,4.921,1.123,6.809,4.676
			c1.888,3.556,1.984,7.175,0.026,8.194c-1.216,0.633-2.902,0.107-4.415-1.278c-1.106-1.012-1.529-1.627-1.543-1.641
			c0.05,0.017,1.824,2.051,2.82,1.541c1.223-0.625,1.253-2.938,0.079-5.148c-1.174-2.21-3.111-3.488-4.328-2.854
			c-0.421,0.218-0.699,0.641-0.834,1.188C21.582,15.195,22.047,13.368,23.333,12.698z M89.702,24.377h1.007v-1.03h-1.007V24.377z
			 M91.489,19.697h1.008v-1.03h-1.008V19.697z M91.478,20.243v4.134c0,0,0.165,0,0.55,0h0.481v-4.134c0,0-0.163,0-0.548,0H91.478z
			 M95.496,20.145c-1.268,0-2.283,0.899-2.283,2.164c0,1.273,1.016,2.165,2.283,2.165c1.276,0,2.292-0.892,2.292-2.165
			C97.788,21.044,96.772,20.145,95.496,20.145z M95.496,23.599c-0.67,0-1.235-0.519-1.235-1.29c0-0.761,0.565-1.288,1.235-1.288
			c0.68,0,1.244,0.527,1.244,1.288C96.74,23.08,96.176,23.599,95.496,23.599z"/>
	</g>
</g>
</svg>
